<?xml version="1.0" standalone="no"?>
<!DOCTYPE svg PUBLIC "-//W3C//DTD SVG 20010904//EN"
 "http://www.w3.org/TR/2001/REC-SVG-20010904/DTD/svg10.dtd">
<svg version="1.0" xmlns="http://www.w3.org/2000/svg"
 width="398.000000pt" height="270.000000pt" viewBox="0 0 398.000000 270.000000"
 preserveAspectRatio="xMidYMid meet">

<g transform="translate(0.000000,270.000000) scale(0.100000,-0.100000)"
fill="#000000" stroke="none">
<path d="M1332 2313 c3 -26 8 -29 54 -34 74 -9 107 -28 121 -69 16 -46 18
-957 2 -1013 -13 -48 -44 -68 -119 -74 -58 -6 -60 -7 -60 -34 l0 -29 290 0
290 0 0 30 c0 28 -3 30 -36 30 -58 0 -121 20 -146 47 -23 24 -23 29 -26 259
l-3 234 173 -2 173 -3 3 -390 c2 -355 1 -393 -15 -425 -20 -38 -65 -58 -135
-59 -35 -1 -38 -3 -38 -31 l0 -30 290 0 290 0 0 29 c0 27 -2 28 -60 34 -92 10
-127 28 -139 74 -6 21 -11 123 -11 227 0 157 2 187 14 183 8 -3 51 -14 96 -23
71 -15 93 -16 163 -6 94 14 200 60 263 115 118 103 154 318 76 460 -32 59 -80
102 -148 134 -101 46 -165 53 -512 53 l-323 0 3 -27 c3 -26 7 -29 62 -35 32
-4 69 -14 82 -23 25 -16 44 -70 44 -127 l0 -37 -52 -6 c-29 -3 -107 -5 -173
-3 l-120 3 -3 244 c-2 171 1 248 9 257 17 20 346 20 394 0 38 -16 76 -68 110
-153 13 -32 29 -58 34 -57 6 1 20 2 32 3 20 1 21 4 15 104 -4 56 -9 123 -12
150 l-6 47 -475 0 -474 0 3 -27z m1167 -400 c79 -25 153 -98 175 -172 51 -175
-18 -347 -160 -401 -61 -22 -183 -27 -246 -9 l-38 10 0 259 c0 146 4 270 10
285 5 14 20 30 32 35 39 15 167 11 227 -7z"/>
<path d="M1050 495 c0 -63 15 -72 42 -24 14 24 23 30 45 27 l28 -3 3 -128 3
-127 -26 -12 c-14 -6 -25 -17 -25 -25 0 -10 20 -13 80 -13 62 0 80 3 80 14 0
8 -11 17 -25 20 l-25 6 0 135 c0 126 1 135 19 135 32 0 52 -12 62 -36 4 -13
15 -24 24 -24 12 0 15 12 15 55 0 41 -4 55 -14 55 -8 0 -18 -4 -21 -10 -4 -6
-53 -10 -115 -10 -62 0 -111 4 -115 10 -3 6 -13 10 -21 10 -10 0 -14 -14 -14
-55z"/>
<path d="M142 532 c-96 -2 -122 -6 -122 -17 0 -7 10 -15 23 -17 22 -3 22 -6
22 -133 0 -125 -1 -130 -22 -140 -13 -5 -23 -15 -23 -22 0 -9 22 -13 80 -13
64 0 80 3 80 15 0 8 -11 17 -25 21 -23 6 -25 11 -25 60 l0 54 39 0 c31 0 41
-4 46 -20 3 -11 13 -20 21 -20 11 0 14 15 14 60 0 64 -14 78 -38 40 -8 -14
-23 -20 -47 -20 l-35 0 0 60 0 60 35 0 c34 0 75 -27 75 -50 0 -5 8 -10 19 -10
16 0 18 6 13 48 -2 26 -5 47 -6 47 0 0 -56 -1 -124 -3z"/>
<path d="M802 519 c-63 -32 -95 -85 -95 -158 0 -124 94 -194 232 -174 52 8 55
9 70 51 13 37 14 44 1 52 -10 6 -20 -1 -37 -25 -29 -42 -74 -53 -126 -32 -81
34 -99 179 -29 244 21 20 34 23 76 21 45 -3 53 -7 71 -35 29 -47 50 -39 46 17
-1 25 -5 47 -7 49 -2 2 -39 6 -81 8 -66 4 -85 1 -121 -18z"/>
<path d="M2798 533 c-91 -3 -118 -7 -118 -17 0 -8 9 -16 20 -19 19 -5 20 -14
20 -131 0 -125 0 -127 -25 -138 -14 -6 -25 -17 -25 -25 0 -10 28 -13 130 -13
l129 0 10 37 c6 21 11 44 11 51 0 22 -26 13 -49 -19 -20 -27 -27 -30 -69 -27
l-47 3 -3 58 -3 57 36 0 c28 0 38 -5 42 -20 3 -11 14 -20 24 -20 17 0 19 8 19
60 0 52 -2 60 -19 60 -10 0 -21 -9 -24 -20 -4 -15 -14 -20 -41 -20 l-36 0 0
55 0 55 35 0 c34 0 75 -27 75 -50 0 -5 7 -10 15 -10 11 0 15 12 15 50 0 28 -1
49 -2 48 -2 -1 -56 -4 -120 -5z"/>
<path d="M3011 514 c-26 -21 -31 -33 -31 -68 0 -47 18 -69 98 -119 34 -22 42
-33 42 -57 0 -62 -86 -64 -112 -3 -7 16 -13 29 -14 31 -6 10 -31 -13 -28 -26
13 -71 14 -71 56 -83 83 -22 158 25 158 100 0 41 -29 76 -87 105 -39 20 -66
57 -57 80 16 42 77 36 94 -9 5 -14 17 -25 26 -25 14 0 16 7 11 41 -7 50 -18
59 -79 59 -36 0 -54 -6 -77 -26z"/>
<path d="M300 516 c0 -8 10 -16 23 -18 21 -3 22 -7 25 -131 l3 -127 -26 -12
c-14 -6 -25 -17 -25 -25 0 -10 20 -13 80 -13 64 0 80 3 80 15 0 8 -11 17 -25
21 -22 5 -25 11 -25 53 0 46 1 47 28 43 75 -11 142 58 128 131 -12 63 -42 77
-162 77 -84 0 -104 -3 -104 -14z m178 -32 c16 -11 22 -25 22 -54 0 -43 -26
-70 -67 -70 -22 0 -23 4 -23 63 0 35 3 67 7 70 11 12 37 8 61 -9z"/>
<path d="M1370 516 c0 -8 10 -16 23 -18 21 -3 22 -7 25 -131 l3 -127 -26 -12
c-14 -6 -25 -17 -25 -25 0 -10 19 -13 75 -13 58 0 75 3 75 14 0 8 -9 18 -20
21 -16 5 -20 15 -20 56 0 43 3 50 17 47 10 -2 32 -26 50 -53 56 -86 54 -85
234 -85 l158 0 11 41 c19 70 -1 90 -35 36 -18 -28 -27 -32 -68 -35 l-48 -3 3
133 c3 129 4 133 26 136 12 2 22 10 22 18 0 11 -17 14 -80 14 -63 0 -80 -3
-80 -14 0 -8 10 -16 23 -18 22 -3 22 -6 22 -133 l0 -130 -29 -10 c-26 -9 -31
-6 -65 31 -20 23 -42 52 -49 66 -13 23 -12 28 12 51 36 36 36 98 1 132 -23 23
-31 25 -130 25 -84 0 -105 -3 -105 -14z m182 -35 c4 -3 10 -21 14 -38 7 -37
-22 -73 -61 -73 -24 0 -25 3 -25 58 0 32 3 62 7 66 8 8 53 -1 65 -13z"/>
<path d="M2070 516 c0 -7 9 -16 19 -19 15 -4 28 -33 56 -123 20 -66 41 -134
46 -151 18 -57 41 -42 71 45 53 155 45 151 87 32 53 -148 62 -146 121 40 36
116 50 147 68 155 44 20 25 35 -43 35 -49 0 -65 -3 -65 -14 0 -7 9 -16 20 -19
24 -6 22 -16 -15 -127 l-22 -65 -37 113 c-49 147 -60 148 -104 6 -19 -59 -37
-103 -41 -98 -9 10 -51 145 -51 163 0 6 7 11 15 11 8 0 15 7 15 15 0 12 -14
15 -70 15 -53 0 -70 -3 -70 -14z"/>
<path d="M3200 516 c0 -8 10 -16 23 -18 21 -3 22 -7 25 -131 l3 -127 -26 -12
c-14 -6 -25 -17 -25 -25 0 -10 20 -13 80 -13 64 0 80 3 80 15 0 8 -11 17 -25
21 -22 5 -25 11 -25 53 0 46 1 47 28 43 75 -11 142 58 128 131 -12 63 -42 77
-162 77 -84 0 -104 -3 -104 -14z m178 -32 c16 -11 22 -25 22 -54 0 -43 -26
-70 -67 -70 -22 0 -23 4 -23 63 0 35 3 67 7 70 11 12 37 8 61 -9z"/>
<path d="M3552 517 c-32 -18 -57 -56 -44 -69 7 -7 20 -3 40 12 25 18 33 20 51
10 33 -17 23 -51 -21 -75 -48 -25 -53 -57 -8 -48 58 11 95 -61 52 -100 -23
-21 -46 -21 -77 -1 -20 13 -28 14 -40 4 -52 -43 54 -82 125 -45 70 36 93 120
46 164 -23 22 -23 24 -8 50 21 37 9 77 -28 96 -35 18 -57 19 -88 2z"/>
<path d="M3798 517 c-15 -6 -36 -25 -48 -40 -18 -22 -20 -30 -10 -42 11 -13
15 -11 32 10 12 16 30 25 47 25 82 0 63 -96 -38 -195 -28 -27 -51 -57 -51 -67
0 -17 9 -18 102 -16 l101 3 13 38 c12 33 11 39 -3 44 -9 4 -19 -1 -25 -10 -6
-12 -23 -17 -56 -17 l-46 0 40 43 c61 62 74 87 74 134 0 74 -67 120 -132 90z"/>
</g>
</svg>
